<?xml version="1.0" standalone="no"?>
<!DOCTYPE svg PUBLIC "-//W3C//DTD SVG 20010904//EN"
 "http://www.w3.org/TR/2001/REC-SVG-20010904/DTD/svg10.dtd">
<svg version="1.0" xmlns="http://www.w3.org/2000/svg"
 width="440.000000pt" height="522.000000pt" viewBox="0 0 440.000000 522.000000"
 preserveAspectRatio="xMidYMid meet">

<g transform="translate(0.000000,522.000000) scale(0.100000,-0.100000)"
fill="#618833" stroke="none">
<path d="M2065 5210 c-76 -11 -253 -72 -325 -113 -351 -197 -611 -517 -783
-962 -55 -144 -188 -520 -247 -700 -24 -71 -50 -138 -58 -147 -13 -16 -36 -18
-194 -18 l-179 0 -61 31 c-47 24 -70 30 -96 25 -79 -12 -125 -72 -119 -154 5
-66 29 -93 110 -123 83 -29 127 -59 127 -85 0 -28 -20 -44 -122 -93 -64 -30
-92 -49 -103 -71 -56 -109 57 -243 166 -197 19 8 52 26 73 41 37 25 44 26 172
26 l134 0 -7 -247 c-4 -176 -2 -278 7 -352 11 -87 10 -105 -1 -112 -8 -5 -75
-9 -149 -9 -130 0 -137 1 -174 26 -73 50 -161 42 -211 -18 -21 -24 -25 -40
-25 -90 0 -53 3 -63 28 -87 16 -14 65 -41 110 -59 95 -40 122 -63 101 -88 -8
-9 -55 -36 -105 -59 -108 -50 -134 -78 -134 -144 0 -127 114 -179 232 -106
l57 35 206 -2 207 -3 32 -80 c46 -111 98 -214 168 -324 76 -120 125 -184 242
-313 290 -321 705 -548 1141 -623 122 -20 429 -20 571 1 549 81 1043 417 1287
874 134 252 196 496 197 772 0 235 -56 474 -161 680 -33 66 -122 198 -169 250
-50 58 -100 73 -132 40 -29 -28 -26 -50 21 -192 55 -164 73 -280 74 -470 1
-237 -44 -433 -150 -645 -125 -250 -370 -474 -649 -594 -382 -164 -855 -113
-1175 129 -136 102 -306 303 -360 426 -35 78 -52 74 351 74 197 0 365 -3 374
-6 12 -5 16 -21 16 -73 0 -79 21 -120 73 -144 46 -22 95 -21 134 3 50 30 66
63 71 146 2 41 7 74 11 74 3 0 28 -16 55 -35 37 -26 60 -35 90 -35 111 0 183
123 123 211 -23 34 -32 40 -159 99 -38 17 -68 37 -68 44 0 21 31 43 121 84 48
22 95 52 107 67 44 55 21 146 -50 198 -42 31 -106 26 -162 -12 -24 -17 -49
-31 -55 -31 -7 0 -11 26 -11 66 0 77 -19 125 -61 155 -36 25 -104 27 -148 5
-48 -25 -64 -58 -69 -147 l-5 -79 -433 0 -434 0 -14 23 c-51 80 -61 492 -15
634 20 63 19 63 390 63 l337 0 6 -31 c3 -17 6 -57 6 -89 0 -66 23 -104 76
-126 44 -18 78 -18 121 2 53 26 67 56 73 153 l5 86 237 3 236 2 30 -24 c24
-21 30 -35 36 -87 10 -104 62 -154 150 -146 42 4 55 10 83 41 30 33 33 41 33
101 0 36 1 65 3 65 1 0 17 -4 34 -9 83 -24 161 46 150 135 -8 72 -43 100 -202
161 -41 16 -50 24 -50 44 0 20 15 31 103 75 137 67 147 78 147 155 0 56 -3 63
-32 89 -37 34 -94 47 -129 31 -24 -10 -24 -10 -24 42 0 73 -25 116 -83 146
-43 21 -51 22 -92 11 -69 -19 -105 -73 -105 -157 0 -20 -8 -41 -20 -53 -19
-19 -33 -20 -259 -20 -270 0 -251 -7 -251 87 0 68 -22 108 -72 134 -50 25 -98
24 -139 -4 -47 -31 -59 -61 -59 -144 l0 -73 -300 0 c-212 0 -300 3 -300 11 0
12 36 85 76 157 63 109 189 244 318 341 137 104 298 167 611 241 312 73 386
97 418 130 31 35 37 92 11 128 -34 49 -55 52 -334 52 l-262 0 27 33 c15 17 69
70 120 117 487 449 475 437 475 495 -1 79 -67 155 -180 209 l-65 31 -355 2
c-195 0 -382 -3 -415 -7z m270 -253 c140 -75 167 -247 54 -354 -85 -80 -227
-85 -307 -10 -77 72 -98 180 -52 272 53 106 198 150 305 92z"/>
<path d="M3720 5109 c-143 -28 -315 -167 -383 -309 -19 -41 -41 -103 -48 -137
l-12 -63 -189 0 c-189 0 -189 0 -214 -25 -21 -21 -24 -31 -19 -58 14 -66 17
-67 231 -67 l193 0 11 -42 c29 -113 77 -196 164 -283 141 -140 303 -190 490
-150 140 30 258 106 337 220 137 196 154 397 53 605 -71 145 -236 279 -382
309 -61 13 -167 13 -232 0z m80 -167 l0 -69 -39 -12 c-115 -34 -152 -168 -70
-251 33 -32 32 -32 189 -34 91 -1 110 -4 143 -25 102 -63 130 -185 65 -289
-26 -42 -93 -92 -125 -92 -19 0 -23 -5 -23 -29 0 -45 -10 -61 -36 -61 -23 0
-24 3 -24 59 0 33 -3 66 -6 75 -5 12 1 16 22 16 37 0 103 31 128 58 26 30 33
110 13 149 -28 54 -39 58 -193 63 -160 6 -170 10 -231 88 -79 103 -39 268 78
323 41 20 49 28 49 51 0 15 8 31 18 37 36 22 42 14 42 -57z m134 29 c5 -30 11
-40 31 -45 34 -9 95 -64 95 -87 0 -10 -9 -23 -19 -29 -16 -8 -27 -3 -61 25
-27 22 -52 35 -71 35 -29 0 -29 0 -29 63 0 68 4 77 30 77 12 0 19 -11 24 -39z
m-181 -731 l47 0 0 -81 0 -80 -27 3 c-22 2 -28 9 -30 28 0 14 -1 32 -2 41 -1
11 -14 18 -38 22 -76 13 -145 118 -95 146 14 8 25 1 58 -35 37 -40 45 -44 87
-44z"/>
</g>
</svg>
